<svg xmlns="http://www.w3.org/2000/svg" width="17" height="17" viewBox="0 0 17 17">
    <path fill="#212121" fill-rule="nonzero" d="M16.75 12.15c-2-2.001-2.301-3.005-2.301-6.2a5.95 5.95 0 1 0-11.898 0c0 1.723-.046 2.366-.283 3.156-.295.983-.9 1.925-2.017 3.043-.536.536-.157 1.451.6 1.451h4.717l-.043.425a2.975 2.975 0 1 0 5.95 0l-.044-.425h4.717c.758 0 1.137-.915.601-1.45zM8.5 15.13a1.275 1.275 0 0 1-1.274-1.275l.025-.255H9.75l.026.255c0 .704-.571 1.275-1.275 1.275zm-6.798-2.85c2.266-2.267 2.266-3.779 2.266-6.046a4.534 4.534 0 1 1 9.067 0c0 2.267 0 3.779 2.267 6.046h-13.6z"/>
</svg>
