<svg xmlns="http://www.w3.org/2000/svg" width="13" height="19" viewBox="0 0 13 19">
    <g fill="none" fill-rule="evenodd">
        <g stroke="#000" stroke-width="1.2" transform="translate(0 1)">
            <rect width="11.8" height="12.694" x=".6" y="4.04" rx="1.18"/>
            <path d="M3.928 3.452V1.766c.254-.52.486-.867.698-1.043.93-.77 1.724-.695 1.896-.695"/>
            <path d="M9.065 3.452V1.766c-.253-.52-.486-.867-.698-1.043-.93-.77-1.724-.695-1.895-.695"/>
        </g>
        <path fill="#000" d="M7.071 10.032A1.583 1.583 0 0 0 5.58 9.014H4V8h6v1.014H7.683c.189.242.33.514.42.805a.294.294 0 0 0 .281.213H10v1.014H8.385a.296.296 0 0 0-.283.213c-.324 1.059-1.34 1.818-2.522 1.818h-.25l2.178 2.7-.831.623-2.614-3.239A.285.285 0 0 1 4 12.984v-.92h1.58c.68 0 1.271-.42 1.491-1.018H4v-1.014h3.071z"/>
    </g>
</svg>
