<?xml version="1.0" encoding="UTF-8"?>
<svg width="29px" height="20px" viewBox="0 0 29 20" version="1.1" xmlns="http://www.w3.org/2000/svg" xmlns:xlink="http://www.w3.org/1999/xlink">
    <!-- Generator: Sketch 48.2 (47327) - http://www.bohemiancoding.com/sketch -->
    <title>Page 1</title>
    <desc>Created with Sketch.</desc>
    <defs></defs>
    <g id="My-account-landing-Copy" stroke="none" stroke-width="1" fill="none" fill-rule="evenodd" transform="translate(-43.000000, -241.000000)">
        <g id="Order-History" transform="translate(20.000000, 242.000000)" stroke="#000000" stroke-width="1.4">
            <g id="Page-1" transform="translate(24.000000, 0.000000)">
                <path d="M24.8173364,17.7647727 L2.34351818,17.7647727 C1.36988182,17.7647727 0.572972727,16.9678636 0.572972727,15.9934091 L0.572972727,2.34368182 C0.572972727,1.36922727 1.36988182,0.572318182 2.34351818,0.572318182 L24.8173364,0.572318182 C25.7909727,0.572318182 26.5887,1.36922727 26.5887,2.34368182 L26.5887,15.9934091 C26.5887,16.9678636 25.7909727,17.7647727 24.8173364,17.7647727 Z" id="Stroke-1"></path>
                <path d="M9.23432727,0.398372727 L9.23432727,17.5908273" id="Stroke-3"></path>
                <path d="M0.573054545,9.0612 L26.5887818,9.0612" id="Stroke-5"></path>
                <path d="M10.0844182,4.3407 C8.99050909,5.43460909 9.40369091,8.9847 9.40369091,8.9847 C9.40369091,8.9847 12.9529636,9.39788182 14.0476909,8.30315455 C15.1424182,7.20924545 15.1424182,5.43460909 14.0476909,4.3407 C12.9529636,3.24679091 11.1791455,3.24679091 10.0844182,4.3407 Z" id="Stroke-7"></path>
                <path d="M9.59547273,9.56659091 C9.37783636,11.0990455 11.2514727,13.6165909 12.7839273,13.8334091" id="Stroke-9" stroke-linecap="round"></path>
                <path d="M8.79725455,9.56659091 C9.01407273,11.0990455 7.37034545,13.6165909 5.83789091,13.8334091" id="Stroke-11" stroke-linecap="round"></path>
                <path d="M8.38333636,4.3407 C9.47806364,5.43460909 9.06406364,8.9847 9.06406364,8.9847 C9.06406364,8.9847 5.51479091,9.39788182 4.42006364,8.30315455 C3.32615455,7.20924545 3.32615455,5.43460909 4.42006364,4.3407 C5.51479091,3.24679091 7.28860909,3.24679091 8.38333636,4.3407 Z" id="Stroke-13"></path>
            </g>
        </g>
    </g>
</svg>