<svg height="18" viewBox="0 0 18 18" width="18" xmlns="http://www.w3.org/2000/svg"><path d="m7.20634921 0h-6.57142858c-.35073015 0-.63492063.28419048-.63492063.63492063v6.57142858c0 .35073016.28419048.63492063.63492063.63492063h6.57142858c.35073016 0 .63492063-.28419047.63492063-.63492063v-6.57142858c0-.35073015-.28419047-.63492063-.63492063-.63492063zm-.63492064 6.57142857h-5.3015873v-5.3015873h5.3015873zm10.79365083-6.57142857h-6.5714286c-.3507302 0-.6349206.28419048-.6349206.63492063v6.57142858c0 .35073016.2841904.63492063.6349206.63492063h6.5714286c.3507301 0 .6349206-.28419047.6349206-.63492063v-6.57142858c0-.35073015-.2841905-.63492063-.6349206-.63492063zm-.6349207 6.57142857h-5.3015873v-5.3015873h5.3015873zm-9.52380949 3.58730163h-6.57142858c-.35073015 0-.63492063.2841904-.63492063.6349206v6.5714286c0 .3507301.28419048.6349206.63492063.6349206h6.57142858c.35073016 0 .63492063-.2841905.63492063-.6349206v-6.5714286c0-.3507302-.28419047-.6349206-.63492063-.6349206zm-.63492064 6.5714285h-5.3015873v-5.3015873h5.3015873zm10.79365083-6.5714285h-6.5714286c-.3507302 0-.6349206.2841904-.6349206.6349206v6.5714286c0 .3507301.2841904.6349206.6349206.6349206h6.5714286c.3507301 0 .6349206-.2841905.6349206-.6349206v-6.5714286c0-.3507302-.2841905-.6349206-.6349206-.6349206zm-.6349207 6.5714285h-5.3015873v-5.3015873h5.3015873z" fill="#8d8d8d"/></svg>