<svg xmlns="http://www.w3.org/2000/svg" width="13" height="19" viewBox="0 0 13 19">
    <g fill="none" fill-rule="nonzero">
        <path fill="#212121" d="M0 1.833v15.333c0 .258.054.507.162.741.102.223.247.421.431.589.358.325.824.504 1.315.504.42 0 .819-.13 1.155-.377L6.5 16.097l3.437 2.526c.336.247.735.377 1.155.377.49 0 .957-.18 1.315-.504.184-.168.33-.366.431-.589.108-.234.162-.483.162-.741V1.833C13 .823 12.145 0 11.094 0H1.906C.855 0 0 .822 0 1.833zm11.596 0v15.333a.493.493 0 0 1-.504.483.507.507 0 0 1-.302-.1l-3.986-2.928a.514.514 0 0 0-.608 0L2.21 17.549c-.093.069-.199.1-.302.1a.493.493 0 0 1-.504-.483V1.833c0-.266.225-.482.502-.482h9.188c.277 0 .502.216.502.482z"/>
        <path fill="#FFF" d="M1.92 19c-.494 0-.964-.18-1.323-.508a1.83 1.83 0 0 1-.434-.592A1.78 1.78 0 0 1 0 17.153V1.846C0 .828.86 0 1.917 0h9.166C12.14 0 13 .828 13 1.846v15.307c0 .26-.055.511-.163.747a1.83 1.83 0 0 1-.434.592c-.36.328-.829.508-1.323.508-.422 0-.823-.131-1.161-.38L6.5 16.106 3.081 18.62c-.338.249-.74.38-1.161.38zM1.917.031C.878.031.033.846.033 1.846v15.307c0 .255.053.502.16.734.1.22.244.416.427.583.353.321.814.499 1.3.499.414 0 .81-.13 1.141-.374L6.5 16.066l.01.008 3.429 2.521c.332.244.727.374 1.141.374.486 0 .947-.178 1.3-.5.183-.166.327-.362.428-.582a1.75 1.75 0 0 0 .16-.734V1.846c0-1-.846-1.815-1.885-1.815H1.917zm9.163 17.62a.523.523 0 0 1-.311-.103l-3.975-2.923a.492.492 0 0 0-.294-.096.492.492 0 0 0-.294.096l-3.975 2.923a.522.522 0 0 1-.311.103c-.25 0-.52-.19-.52-.498V1.846c0-.274.233-.497.517-.497h9.166c.285 0 .516.223.516.497v15.307c0 .308-.269.498-.519.498zM6.5 14.498c.114 0 .223.035.314.102l3.975 2.923a.49.49 0 0 0 .291.097c.234 0 .487-.179.487-.467V1.846a.476.476 0 0 0-.484-.466H1.917a.476.476 0 0 0-.484.466v15.307c0 .288.253.467.487.467a.49.49 0 0 0 .291-.097L6.186 14.6c.091-.067.2-.102.314-.102z"/>
    </g>
</svg>
