<svg enable-background="new 0 0 50 50" height="50" viewBox="0 0 50 50" width="50" xmlns="http://www.w3.org/2000/svg"><g stroke="#010101" transform="translate(1 1)"><path d="m.571 19.794c2.931 0 5.319 2.359 5.319 5.256 0 2.91-2.388 5.258-5.319 5.258-.593 0-1.071.45-1.071 1.051v6.285c0 .576.478 1.051 1.071 1.051h46.871c.581 0 1.059-.475 1.059-1.051v-6.285c0-.601-.478-1.051-1.059-1.051-2.955 0-5.343-2.348-5.343-5.258 0-2.897 2.388-5.256 5.343-5.256.581 0 1.059-.462 1.059-1.04v-8.411c0-.577-.478-1.04-1.059-1.04h-46.871c-.593 0-1.071.462-1.071 1.04v8.411c0 .578.478 1.04 1.071 1.04zm.894-8.528h45.071v6.441c-3.638.509-6.448 3.612-6.448 7.35 0 3.74 2.812 6.844 6.451 7.363l-.003 4.314h-45.071l.002-4.314c3.637-.521 6.435-3.625 6.435-7.363 0-3.739-2.801-6.844-6.441-7.351z" fill="#010101" stroke-width=".4"/><path d="m16.156 10.285v27.5" fill="none" stroke-linecap="square" stroke-width="1.4"/></g></svg>