<?xml version="1.0" encoding="UTF-8"?>
<svg width="34px" height="24px" viewBox="0 0 34 24" version="1.1" xmlns="http://www.w3.org/2000/svg" xmlns:xlink="http://www.w3.org/1999/xlink">
    <!-- Generator: Sketch 62 (91390) - https://sketch.com -->
    <title>Group 5</title>
    <desc>Created with Sketch.</desc>
    <defs>
        <path d="M33.6703089,11.6258842 L33.6692613,11.6269421 C33.748385,11.7566374 33.7898879,11.9056791 33.7898879,12.0576088 L33.7898879,18.5969691 C33.7898879,19.0466834 33.429058,19.4117439 32.9846307,19.4117439 L30.4895187,19.4117439 C30.382641,21.4857169 28.6853746,23.142778 26.6071686,23.142778 C24.5289627,23.142778 22.8306358,21.4857169 22.7237581,19.4117439 L14.9273205,19.4117439 C14.8215033,21.4857169 13.1221159,23.142778 11.0439125,23.142778 C8.96464999,23.142778 7.26632052,21.4857169 7.16050585,19.4117439 L5.89072721,19.4117439 C5.44418796,19.4117439 5.08441704,19.0466834 5.08441704,18.5969691 L5.08441704,15.0966126 L0.806320646,15.0966126 C0.359781779,15.0966126 -8.2868426e-13,14.7315508 -8.2868426e-13,14.2818378 C-0.00111436578,14.0668679 0.0832042697,13.8602553 0.234417298,13.7074552 C0.385630314,13.5546539 0.591350599,13.4681831 0.806320646,13.4670631 L5.89178513,13.4670631 C6.33726647,13.4670631 6.6980953,13.8321248 6.6980953,14.2818378 L6.6980953,17.7800785 L7.41763583,17.7800785 C7.98480443,16.312426 9.39425874,15.2680322 11.0439125,15.2680322 C12.7041493,15.2680322 14.1210039,16.3240656 14.6797066,17.8054736 C14.7421468,17.7906602 20.6519022,17.7800785 20.6519022,17.7800785 L20.6519022,4.48442983 C20.6519022,4.45481341 20.6624814,3.17656112 19.8667568,2.36072585 C19.3948211,1.87610298 18.7038533,1.63061005 17.8118302,1.63061005 L6.69703609,1.63061005 L6.69703609,2.81891379 L11.0735406,2.81891379 C11.5190219,2.81891379 11.8787928,3.18397169 11.8787928,3.63368857 C11.8787928,4.08445301 11.517964,4.44846334 11.0735406,4.44846334 L2.69300005,4.44846334 C2.24646209,4.44846334 1.88669118,4.08445301 1.88669118,3.63368857 C1.88556601,3.41871736 1.96988356,3.21210082 2.1210967,3.05929822 C2.27230985,2.90649562 2.47803013,2.82002603 2.69300005,2.81891379 L5.08547495,2.81891379 L5.08547495,0.814774775 C5.08434979,0.599803564 5.16866863,0.393187027 5.31988178,0.240397357 C5.47109492,0.0875947548 5.67681521,0.00112516517 5.89178513,0 L17.8118302,0 C19.1599203,0 20.2424068,0.414797958 21.0296603,1.23063323 C21.8984042,2.13322262 22.1565972,3.29718659 22.2317246,3.96805662 L28.5202986,3.96805662 C28.7999604,3.9686774 29.0592139,4.11453502 29.2049293,4.35322523 L33.6703089,11.6258842 Z M11.0439125,21.5121699 L11.0439125,21.511112 C12.3031107,21.511112 13.3274003,20.476242 13.3274003,19.2043475 C13.3274003,17.9324517 12.3031107,16.8975817 11.0439125,16.8975817 C9.78577354,16.8975817 8.76254317,17.9324517 8.76254317,19.2043475 C8.76254317,20.476242 9.78577354,21.5121699 11.0439125,21.5121699 Z M26.6092896,21.5121699 L26.6092896,21.511112 C27.8663707,21.511112 28.8895985,20.476242 28.8895985,19.2043475 C28.8895985,17.9324517 27.8663707,16.8975817 26.6092896,16.8975817 C25.3511481,16.8975817 24.3268598,17.9324517 24.3268598,19.2043475 C24.3268598,20.476242 25.3500876,21.5121699 26.6092896,21.5121699 Z M30.2334466,17.7800785 L32.1793875,17.7800785 L32.1793875,12.504148 L24.715197,12.504148 C24.2697221,12.504148 23.9099408,12.1390862 23.9099408,11.6893732 L23.9099408,7.68957273 C23.9085441,7.47451099 23.9927633,7.26773926 24.1440398,7.11487199 C24.2953164,6.96201766 24.5011957,6.8756386 24.7162575,6.87479796 L26.8537221,6.87479796 C27.0686933,6.87591019 27.2744045,6.96237978 27.4256164,7.11518238 C27.5768282,7.26798498 27.661151,7.47460152 27.6600258,7.68957273 C27.6600258,8.14033718 27.299197,8.50434751 26.8547696,8.50434751 L25.5215136,8.50434751 L25.5215136,10.8745985 L31.3117041,10.8745985 L28.0727027,5.59760617 L22.2634621,5.59760617 L22.2634621,17.7800785 L22.9840722,17.7800785 C23.549112,16.3113681 24.9585689,15.2669743 26.6092896,15.2669743 C28.2578765,15.2669743 29.6673334,16.3113681 30.2334466,17.7800785 Z" id="path-1"></path>
        <path d="M6.83881725,0.57892981 C7.28429859,0.57892981 7.64406821,0.945048208 7.64406821,1.39370458 L7.64406821,4.81575864 L9.62280695,4.81575864 C10.0693462,4.81575864 10.4291171,5.18081524 10.4291171,5.63052824 C10.4291171,6.08130044 10.0672304,6.44530302 9.62280695,6.44530302 L3.06968983,6.44530302 C2.62420978,6.44530302 2.26442749,6.08130044 2.26442749,5.63052824 C2.26209413,5.18328673 2.6224522,4.81866855 3.06968983,4.81575864 L6.03250837,4.81575864 L6.03250837,1.39370458 C6.03138191,1.17873337 6.11570075,0.972116837 6.2669139,0.819314234 C6.41812704,0.666511632 6.62384733,0.580042042 6.83881725,0.57892981 Z M1.75335264,2.20952693 L1.75335264,2.20847936 C1.30787259,2.20847936 0.947032249,1.84446903 0.947032249,1.39370458 C0.945917948,1.17873337 1.03023653,0.972116837 1.18144955,0.819314234 C1.33266243,0.666511632 1.53838272,0.580042042 1.75335264,0.57892981 L4.11619948,0.57892981 C4.56168082,0.57892981 4.92145174,0.943987708 4.92145174,1.39475215 C4.92145174,1.84446903 4.56062291,2.20952693 4.11619948,2.20952693 L1.75335264,2.20952693 Z M1.77980695,5.63052824 L1.77874904,5.63052824 C1.77874904,6.08130044 1.41792021,6.44530302 0.973497169,6.44530302 L0.919531532,6.44530302 C0.474050837,6.44530302 0.114268979,6.08130044 0.114268979,5.63052824 C0.113154614,5.41555832 0.197473212,5.20894696 0.348686227,5.05614306 C0.499899243,4.90334046 0.705619657,4.81687087 0.920589704,4.81575864 L0.974555341,4.81575864 C1.42003604,4.81575864 1.77980695,5.18187316 1.77980695,5.63052824 Z" id="path-3"></path>
    </defs>
    <g id="phase-1" stroke="none" stroke-width="1" fill="none" fill-rule="evenodd">
        <g id="new-5.5" transform="translate(-589.000000, -446.000000)">
            <g id="Group-5" transform="translate(589.000000, 446.000000)">
                <g id="Group-13-Copy">
                    <g id="delivery-tomorow" transform="translate(0.000000, -0.000000)">
                        <g id="Group-3">
                            <mask id="mask-2" fill="white">
                                <use xlink:href="#path-1"></use>
                            </mask>
                            <g id="Clip-2"></g>
                            <polygon id="Fill-1" fill="#4A4A4A" mask="url(#mask-2)" points="-6.46646647 29.6092451 40.2563533 29.6092451 40.2563533 -6.46646 -6.46646647 -6.46646"></polygon>
                        </g>
                        <g id="Group-6" transform="translate(0.000000, 5.173173)">
                            <mask id="mask-4" fill="white">
                                <use xlink:href="#path-3"></use>
                            </mask>
                            <g id="Clip-5"></g>
                            <polygon id="Fill-4" fill="#4A4A4A" mask="url(#mask-4)" points="-6.35219754 12.9117695 16.8955771 12.9117695 16.8955771 -5.88754183 -6.35219754 -5.88754183"></polygon>
                        </g>
                    </g>
                </g>
            </g>
        </g>
    </g>
</svg>