<svg xmlns="http://www.w3.org/2000/svg" width="30" height="26" viewBox="0 0 30 26">
    <g fill="none" fill-rule="evenodd">
        <g>
            <g>
                <g>
                    <g>
                        <g>
                            <g>
                                <g fill-rule="nonzero">
                                    <path fill="#4A4A4A" d="M27.074 9.178L23.582 3.49c-.115-.187-.317-.301-.535-.301h-4.918c-.06-.525-.261-1.435-.941-2.14-.615-.64-1.462-.963-2.517-.963H5.35c-.349 0-.63.285-.63.637V2.29H2.845c-.348 0-.63.285-.63.637 0 .352.281.638.63.638H9.4c.348 0 .63-.285.63-.638 0-.351-.281-.637-.63-.637H5.98v-.93h8.693c.697 0 1.238.192 1.606.571.623.639.615 1.638.614 1.662V13.99s-4.621.008-4.67.02c-.437-1.158-1.545-1.985-2.844-1.985-1.29 0-2.393.817-2.836 1.965H5.98v-2.737c0-.352-.282-.637-.63-.637H1.37c-.348 0-.63.285-.63.637 0 .352.282.638.63.638h3.347v2.737c0 .352.282.637.63.637h.994c.083 1.623 1.411 2.918 3.037 2.918s2.954-1.295 3.038-2.918h6.097c.084 1.623 1.412 2.918 3.037 2.918 1.626 0 2.953-1.295 3.036-2.918h1.952c.348 0 .63-.285.63-.637V9.514c0-.118-.033-.235-.095-.336zM9.38 16.91c-.985 0-1.785-.81-1.785-1.805 0-.995.8-1.804 1.785-1.804.984 0 1.785.809 1.785 1.804s-.801 1.805-1.785 1.805zm12.173 0c-.984 0-1.785-.81-1.785-1.805 0-.995.8-1.804 1.785-1.804.983 0 1.784.809 1.784 1.804s-.8 1.805-1.784 1.805zm2.835-2.92c-.443-1.147-1.545-1.964-2.835-1.964s-2.393.817-2.836 1.965h-.563V4.463h4.544L25.23 8.59H20.7V6.737h1.044c.348 0 .63-.285.63-.638 0-.352-.283-.637-.63-.637H20.07c-.348 0-.63.285-.63.637v3.129c0 .351.281.637.63.637h5.838v4.126h-1.522z" transform="translate(-925 -346) translate(901 321) translate(24 21) matrix(-1 0 0 1 30 4) matrix(-1 0 0 1 30 0) translate(1.655 6.62)"/>
                                    <path fill="#4A4A4A" d="M4.72 7.807l-.002.006H2.401c-.348 0-.63.285-.63.637 0 .352.282.637.63.637h5.125c.348 0 .63-.285.63-.637 0-.352-.281-.638-.63-.638H5.98l.001-.005H4.72z" transform="translate(-925 -346) translate(901 321) translate(24 21) matrix(-1 0 0 1 30 4) matrix(-1 0 0 1 30 0) translate(1.655 6.62)"/>
                                    <path fill="#000" d="M1.371 5.774H3.22c.348 0 .63-.286.63-.638 0-.352-.282-.637-.63-.637H1.37c-.348 0-.63.285-.63.637 0 .352.282.638.63.638z" transform="translate(-925 -346) translate(901 321) translate(24 21) matrix(-1 0 0 1 30 4) matrix(-1 0 0 1 30 0) translate(1.655 6.62)"/>
                                    <path fill="#4A4A4A" d="M1.392 8.45c0-.352-.282-.637-.63-.637H.72c-.348 0-.63.285-.63.637 0 .352.282.638.63.638h.042c.348 0 .63-.286.63-.638z" transform="translate(-925 -346) translate(901 321) translate(24 21) matrix(-1 0 0 1 30 4) matrix(-1 0 0 1 30 0) translate(1.655 6.62)"/>
                                </g>
                            </g>
                            <g fill-rule="nonzero">
                                <path fill="#49871F" stroke="#FFF" stroke-width="1.5" d="M7.034.75C5.3.75 3.73 1.454 2.592 2.592 1.454 3.729.75 5.3.75 7.034c0 1.735.704 3.306 1.842 4.443C3.729 12.615 5.3 13.32 7.034 13.32c1.735 0 3.306-.704 4.443-1.842 1.138-1.137 1.842-2.708 1.842-4.443 0-1.734-.704-3.305-1.842-4.442C10.34 1.454 8.77.75 7.034.75z" transform="translate(-925 -346) translate(901 321) translate(24 21) matrix(-1 0 0 1 30 4) matrix(-1 0 0 1 30 0)"/>
                                <path fill="#FFF" d="M6.032 9.535c.117.13.267.186.417.186.15 0 .283-.056.4-.186l3.447-3.663c.233-.242.25-.651.017-.912-.217-.26-.583-.279-.817-.018L6.45 8.159 4.866 6.392c-.233-.26-.6-.26-.832 0-.234.26-.234.67 0 .93l1.998 2.213z" transform="translate(-925 -346) translate(901 321) translate(24 21) matrix(-1 0 0 1 30 4) matrix(-1 0 0 1 30 0)"/>
                            </g>
                        </g>
                    </g>
                </g>
            </g>
        </g>
    </g>
</svg>
